<svg width="100" height="100" viewBox="0 0 36 36" fill="none" xmlns="http://www.w3.org/2000/svg">
<g filter="url(#filter0_b_1287_3821)">
<path d="M0 18C0 8.05888 8.05888 0 18 0C27.9411 0 36 8.05888 36 18C36 27.9411 27.9411 36 18 36C8.05888 36 0 27.9411 0 18ZM16.875 2.42225C15.3688 2.88288 13.8704 4.26875 12.6287 6.59697C12.3067 7.20077 12.009 7.85664 11.7399 8.55812C13.3265 8.91203 15.0536 9.13753 16.875 9.20374V2.42225ZM9.55916 7.96374C9.88071 7.09955 10.2435 6.28789 10.6434 5.53815C11.0455 4.78418 11.4944 4.07792 11.9863 3.43879C10.0565 4.23669 8.31973 5.40708 6.86577 6.86035C7.67911 7.27398 8.58171 7.64499 9.55916 7.96374ZM7.89402 16.875C7.97567 14.4675 8.31789 12.1784 8.87587 10.1076C7.59448 9.69078 6.412 9.18679 5.35604 8.60724C3.61441 10.9479 2.50737 13.7887 2.28955 16.875H7.89402ZM11.0446 10.7074C10.544 12.5695 10.2262 14.6542 10.1454 16.875H16.875V11.4551C14.8279 11.3856 12.8634 11.1275 11.0446 10.7074ZM19.125 11.4551V16.875H25.8546C25.7738 14.6542 25.456 12.5695 24.9554 10.7074C23.1366 11.1275 21.172 11.3856 19.125 11.4551ZM10.1454 19.125C10.2262 21.3458 10.544 23.4305 11.0446 25.2926C12.8634 24.8724 14.8279 24.6144 16.875 24.5449V19.125H10.1454ZM19.125 19.125V24.5449C21.172 24.6144 23.1366 24.8724 24.9554 25.2926C25.456 23.4305 25.7738 21.3458 25.8546 19.125H19.125ZM11.7399 27.4418C12.009 28.1433 12.3067 28.7992 12.6287 29.403C13.8704 31.7312 15.3688 33.1171 16.875 33.5777V26.7962C15.0536 26.8624 13.3265 27.0879 11.7399 27.4418ZM11.9863 32.5612C11.4944 31.9221 11.0455 31.2158 10.6434 30.4618C10.2435 29.7121 9.88071 28.9004 9.55916 28.0362C8.58171 28.355 7.67911 28.726 6.86577 29.1396C8.31974 30.5929 10.0565 31.7633 11.9863 32.5612ZM8.87587 25.8923C8.31789 23.8216 7.97567 21.5325 7.89402 19.125H2.28955C2.50737 22.2113 3.61441 25.0521 5.35604 27.3927C6.412 26.8132 7.59448 26.3092 8.87587 25.8923ZM24.0136 32.5612C25.9435 31.7633 27.6802 30.5929 29.1342 29.1396C28.3209 28.726 27.4183 28.355 26.4408 28.0362C26.1193 28.9004 25.7565 29.7121 25.3566 30.4618C24.9545 31.2158 24.5056 31.9221 24.0136 32.5612ZM19.125 26.7962V33.5777C20.6312 33.1171 22.1296 31.7312 23.3713 29.403C23.6933 28.7992 23.991 28.1433 24.2601 27.4418C22.6735 27.0879 20.9464 26.8624 19.125 26.7962ZM27.1241 25.8923C28.4055 26.3092 29.588 26.8132 30.6439 27.3927C32.3856 25.0521 33.4926 22.2113 33.7104 19.125H28.106C28.0243 21.5325 27.6821 23.8216 27.1241 25.8923ZM33.7104 16.875C33.4926 13.7887 32.3856 10.9479 30.6439 8.60724C29.588 9.18679 28.4055 9.69078 27.1241 10.1076C27.6821 12.1784 28.0243 14.4675 28.106 16.875H33.7104ZM25.3566 5.53815C25.7565 6.28789 26.1193 7.09955 26.4408 7.96374C27.4183 7.64499 28.3209 7.27398 29.1342 6.86035C27.6802 5.40708 25.9435 4.23669 24.0136 3.43879C24.5056 4.07792 24.9545 4.78418 25.3566 5.53815ZM24.2601 8.55812C23.991 7.85664 23.6933 7.20077 23.3713 6.59697C22.1296 4.26875 20.6312 2.88288 19.125 2.42225V9.20374C20.9464 9.13753 22.6735 8.91203 24.2601 8.55812Z" fill="#00BF63"/>
</g>
<defs>
<filter id="filter0_b_1287_3821" x="-4" y="-4" width="44" height="44" filterUnits="userSpaceOnUse" color-interpolation-filters="sRGB">
<feFlood flood-opacity="0" result="BackgroundImageFix"/>
<feGaussianBlur in="BackgroundImageFix" stdDeviation="2"/>
<feComposite in2="SourceAlpha" operator="in" result="effect1_backgroundBlur_1287_3821"/>
<feBlend mode="normal" in="SourceGraphic" in2="effect1_backgroundBlur_1287_3821" result="shape"/>
</filter>
</defs>
</svg>
